REM DIRINDEX 1\2,1\3\5,1\3\6,1\4\7,1\4\8
REM DIRNAME cjc139,folder01,folder02,folder03,folder04,folder05,folder06,folder07
TITLE ""
FILE "EG_E3_11.mp3" MP3
  TRACK 01 AUDIO
    TITLE "0:"
    INDEX 01 00:00:00
  TRACK 02 AUDIO
    TITLE "5:cjc139_1623"
    INDEX 01 00:00:17
  TRACK 03 AUDIO
    TITLE "6:cjc139_1624"
    INDEX 01 00:02:53
  TRACK 04 AUDIO
    TITLE "5:cjc139_1625"
    INDEX 01 00:05:38
  TRACK 05 AUDIO
    TITLE "6:cjc139_1626"
    INDEX 01 00:08:30
  TRACK 06 AUDIO
    TITLE "5:cjc139_1627"
    INDEX 01 00:11:15
  TRACK 07 AUDIO
    TITLE "6:cjc139_1628"
    INDEX 01 00:14:29
  TRACK 08 AUDIO
    TITLE "5:cjc139_1629"
    INDEX 01 00:17:12
  TRACK 09 AUDIO
    TITLE "6:cjc139_1630"
    INDEX 01 00:20:22
  TRACK 10 AUDIO
    TITLE "5:cjc139_1631"
    INDEX 01 00:23:08
  TRACK 11 AUDIO
    TITLE "6:cjc139_1632"
    INDEX 01 00:25:48
  TRACK 12 AUDIO
    TITLE "5:cjc139_1633"
    INDEX 01 00:28:33
  TRACK 13 AUDIO
    TITLE "6:cjc139_1634"
    INDEX 01 00:31:45
  TRACK 14 AUDIO
    TITLE "5:cjc139_1635"
    INDEX 01 00:34:30
  TRACK 15 AUDIO
    TITLE "6:cjc139_1636"
    INDEX 01 00:37:01
  TRACK 16 AUDIO
    TITLE "5:cjc139_1637"
    INDEX 01 00:39:62
  TRACK 17 AUDIO
    TITLE "6:cjc139_1638"
    INDEX 01 00:42:43
  TRACK 18 AUDIO
    TITLE "5:cjc139_1639"
    INDEX 01 00:45:28
  TRACK 19 AUDIO
    TITLE "6:cjc139_1640"
    INDEX 01 00:48:49
  TRACK 20 AUDIO
    TITLE "5:cjc139_1641"
    INDEX 01 00:51:32
  TRACK 21 AUDIO
    TITLE "6:cjc139_1642"
    INDEX 01 00:54:03
  TRACK 22 AUDIO
    TITLE "5:cjc139_1643"
    INDEX 01 00:56:63
  TRACK 23 AUDIO
    TITLE "6:cjc139_1644"
    INDEX 01 00:59:51
  TRACK 24 AUDIO
    TITLE "5:cjc139_1645"
    INDEX 01 01:02:34
  TRACK 25 AUDIO
    TITLE "6:cjc139_1646"
    INDEX 01 01:04:43
  TRACK 26 AUDIO
    TITLE "5:cjc139_1647"
    INDEX 01 01:07:29
  TRACK 27 AUDIO
    TITLE "6:cjc139_1648"
    INDEX 01 01:09:61
  TRACK 28 AUDIO
    TITLE "5:cjc139_1649"
    INDEX 01 01:12:44
  TRACK 29 AUDIO
    TITLE "6:cjc139_1650"
    INDEX 01 01:15:42
  TRACK 30 AUDIO
    TITLE "5:cjc139_1651"
    INDEX 01 01:18:27
  TRACK 31 AUDIO
    TITLE "6:cjc139_1652"
    INDEX 01 01:21:61
  TRACK 32 AUDIO
    TITLE "5:cjc139_1653"
    INDEX 01 01:24:47
  TRACK 33 AUDIO
    TITLE "6:cjc139_1654"
    INDEX 01 01:27:63
  TRACK 34 AUDIO
    TITLE "5:cjc139_1655"
    INDEX 01 01:30:48
  TRACK 35 AUDIO
    TITLE "6:cjc139_1656"
    INDEX 01 01:34:05
  TRACK 36 AUDIO
    TITLE "5:cjc139_1657"
    INDEX 01 01:36:62
  TRACK 37 AUDIO
    TITLE "6:cjc139_1658"
    INDEX 01 01:40:17
  TRACK 38 AUDIO
    TITLE "5:cjc139_1659"
    INDEX 01 01:43:02
  TRACK 39 AUDIO
    TITLE "6:cjc139_1660"
    INDEX 01 01:46:04
  TRACK 40 AUDIO
    TITLE "5:cjc139_1661"
    INDEX 01 01:48:61
  TRACK 41 AUDIO
    TITLE "6:cjc139_1662"
    INDEX 01 01:52:18
  TRACK 42 AUDIO
    TITLE "5:cjc139_1663"
    INDEX 01 01:55:03
  TRACK 43 AUDIO
    TITLE "6:cjc139_1664"
    INDEX 01 01:58:15
  TRACK 44 AUDIO
    TITLE "5:cjc139_1665"
    INDEX 01 02:01:01
  TRACK 45 AUDIO
    TITLE "6:cjc139_1666"
    INDEX 01 02:03:49
  TRACK 46 AUDIO
    TITLE "5:cjc139_1667"
    INDEX 01 02:06:32
  TRACK 47 AUDIO
    TITLE "6:cjc139_1668"
    INDEX 01 02:09:56
  TRACK 48 AUDIO
    TITLE "5:cjc139_1669"
    INDEX 01 02:12:40
  TRACK 49 AUDIO
    TITLE "6:cjc139_1670"
    INDEX 01 02:15:37
  TRACK 50 AUDIO
    TITLE "5:cjc139_1671"
    INDEX 01 02:18:19
  TRACK 51 AUDIO
    TITLE "6:cjc139_1672"
    INDEX 01 02:21:67
  TRACK 52 AUDIO
    TITLE "5:cjc139_1673"
    INDEX 01 02:24:51
  TRACK 53 AUDIO
    TITLE "6:cjc139_1674"
    INDEX 01 02:27:16
  TRACK 54 AUDIO
    TITLE "5:cjc139_1675"
    INDEX 01 02:30:03
  TRACK 55 AUDIO
    TITLE "6:cjc139_1676"
    INDEX 01 02:33:15
  TRACK 56 AUDIO
    TITLE "5:cjc139_1677"
    INDEX 01 02:36:00
  TRACK 57 AUDIO
    TITLE "6:cjc139_1678"
    INDEX 01 02:39:35
  TRACK 58 AUDIO
    TITLE "5:cjc139_1679"
    INDEX 01 02:42:20
  TRACK 59 AUDIO
    TITLE "6:cjc139_1680"
    INDEX 01 02:45:38
  TRACK 60 AUDIO
    TITLE "5:cjc139_1681"
    INDEX 01 02:48:23
  TRACK 61 AUDIO
    TITLE "6:cjc139_1682"
    INDEX 01 02:50:45
  TRACK 62 AUDIO
    TITLE "5:cjc139_1683"
    INDEX 01 02:53:32
  TRACK 63 AUDIO
    TITLE "6:cjc139_1684"
    INDEX 01 02:55:23
  TRACK 64 AUDIO
    TITLE "5:cjc139_1685"
    INDEX 01 02:58:05
  TRACK 65 AUDIO
    TITLE "6:cjc139_1686"
    INDEX 01 03:01:21
  TRACK 66 AUDIO
    TITLE "5:cjc139_1687"
    INDEX 01 03:04:08
  TRACK 67 AUDIO
    TITLE "6:cjc139_1688"
    INDEX 01 03:07:08
  TRACK 68 AUDIO
    TITLE "5:cjc139_1689"
    INDEX 01 03:09:68
  TRACK 69 AUDIO
    TITLE "6:cjc139_1690"
    INDEX 01 03:12:00
  TRACK 70 AUDIO
    TITLE "5:cjc139_1691"
    INDEX 01 03:14:55
  TRACK 71 AUDIO
    TITLE "6:cjc139_1692"
    INDEX 01 03:17:63
  TRACK 72 AUDIO
    TITLE "5:cjc139_1693"
    INDEX 01 03:20:46
  TRACK 73 AUDIO
    TITLE "6:cjc139_1694"
    INDEX 01 03:23:50
  TRACK 74 AUDIO
    TITLE "5:cjc139_1695"
    INDEX 01 03:26:66
  TRACK 75 AUDIO
    TITLE "6:cjc139_1696"
    INDEX 01 03:29:59
  TRACK 76 AUDIO
    TITLE "5:cjc139_1697"
    INDEX 01 03:32:45
  TRACK 77 AUDIO
    TITLE "6:cjc139_1698"
    INDEX 01 03:35:63
  TRACK 78 AUDIO
    TITLE "5:cjc139_1699"
    INDEX 01 03:38:48
  TRACK 79 AUDIO
    TITLE "6:cjc139_1700"
    INDEX 01 03:41:09
  TRACK 80 AUDIO
    TITLE "5:cjc139_1701"
    INDEX 01 03:43:71
  TRACK 81 AUDIO
    TITLE "6:cjc139_1702"
    INDEX 01 03:46:38
  TRACK 82 AUDIO
    TITLE "5:cjc139_1703"
    INDEX 01 03:49:20
  TRACK 83 AUDIO
    TITLE "6:cjc139_1704"
    INDEX 01 03:53:14
  TRACK 84 AUDIO
    TITLE "5:cjc139_1705"
    INDEX 01 03:56:01
  TRACK 85 AUDIO
    TITLE "6:cjc139_1706"
    INDEX 01 03:59:07
  TRACK 86 AUDIO
    TITLE "5:cjc139_1707"
    INDEX 01 04:01:67
  TRACK 87 AUDIO
    TITLE "6:cjc139_1708"
    INDEX 01 04:04:37
  TRACK 88 AUDIO
    TITLE "5:cjc139_1709"
    INDEX 01 04:07:20
  TRACK 89 AUDIO
    TITLE "6:cjc139_1710"
    INDEX 01 04:11:16
  TRACK 90 AUDIO
    TITLE "5:cjc139_1711"
    INDEX 01 04:14:01
  TRACK 91 AUDIO
    TITLE "6:cjc139_1712"
    INDEX 01 04:17:36
  TRACK 92 AUDIO
    TITLE "5:cjc139_1713"
    INDEX 01 04:20:21
  TRACK 93 AUDIO
    TITLE "6:cjc139_1714"
    INDEX 01 04:23:58
  TRACK 94 AUDIO
    TITLE "5:cjc139_1715"
    INDEX 01 04:26:45
  TRACK 95 AUDIO
    TITLE "6:cjc139_1716"
    INDEX 01 04:30:47
  TRACK 96 AUDIO
    TITLE "5:cjc139_1717"
    INDEX 01 04:33:29
  TRACK 97 AUDIO
    TITLE "6:cjc139_1718"
    INDEX 01 04:35:62
  TRACK 98 AUDIO
    TITLE "5:cjc139_1719"
    INDEX 01 04:38:44
  TRACK 99 AUDIO
    TITLE "6:cjc139_1720"
    INDEX 01 04:41:17
  TRACK 100 AUDIO
    TITLE "5:cjc139_1721"
    INDEX 01 04:44:04
  TRACK 101 AUDIO
    TITLE "6:cjc139_1722"
    INDEX 01 04:48:03
  TRACK 102 AUDIO
    TITLE "5:cjc139_1723"
    INDEX 01 04:50:65
  TRACK 103 AUDIO
    TITLE "6:cjc139_1724"
    INDEX 01 04:54:10
  TRACK 104 AUDIO
    TITLE "5:cjc139_1725"
    INDEX 01 04:56:70
  TRACK 105 AUDIO
    TITLE "6:cjc139_1726"
    INDEX 01 05:00:46
  TRACK 106 AUDIO
    TITLE "5:cjc139_1727"
    INDEX 01 05:03:32
  TRACK 107 AUDIO
    TITLE "6:cjc139_1728"
    INDEX 01 05:05:55
  TRACK 108 AUDIO
    TITLE "5:cjc139_1729"
    INDEX 01 05:08:41
  TRACK 109 AUDIO
    TITLE "6:cjc139_1730"
    INDEX 01 05:12:31
  TRACK 110 AUDIO
    TITLE "0:"
    INDEX 01 05:15:24
